<svg width="1003" height="722" viewBox="0 0 1003 722" fill="none" xmlns="http://www.w3.org/2000/svg">
<g clip-path="url(#clip0_4_179)">
<path d="M438.8 420.9H402.8M420.8 438.9V402.9M717 298.8L739.3 299.4L738.7 277.1L761 277.7L760.4 255.4L782.7 256L782.1 233.7L804.4 234.3L803.8 212M239.2 15.7C239.2 20.1 235.6 23.6 231.2 23.5C226.9 23.5 223.4 20 223.4 15.7C223.4 11.3 226.9 7.79999 231.3 7.79999C235.7 7.79999 239.2 11.3 239.2 15.7ZM267.3 15.7C267.3 20.1 263.8 23.6 259.4 23.6C255 23.6 251.5 20.1 251.5 15.7C251.5 11.3 255 7.79999 259.4 7.79999C263.7 7.79999 267.2 11.4 267.3 15.7ZM295.3 15.7C295.3 20.1 291.7 23.6 287.3 23.5C283 23.5 279.5 20 279.5 15.7C279.5 11.3 283 7.79999 287.4 7.79999C291.8 7.79999 295.3 11.3 295.3 15.7ZM323.4 15.7C323.4 20.1 319.9 23.6 315.5 23.6C311.1 23.6 307.6 20.1 307.6 15.7C307.6 11.3 311.1 7.79999 315.5 7.79999C319.9 7.79999 323.4 11.4 323.4 15.7ZM351.5 15.7C351.5 20.1 347.9 23.6 343.5 23.5C339.2 23.5 335.7 20 335.7 15.7C335.7 11.3 339.2 7.79999 343.6 7.79999C348 7.79999 351.5 11.4 351.5 15.7ZM684.4 712.7C684.4 717.1 680.9 720.6 676.5 720.6C672.1 720.6 668.6 717.1 668.6 712.7C668.6 708.3 672.1 704.8 676.5 704.8C680.9 704.9 684.4 708.4 684.4 712.7ZM712.5 712.7C712.5 717.1 709 720.6 704.6 720.6C700.2 720.6 696.7 717.1 696.7 712.7C696.7 708.3 700.2 704.8 704.6 704.8C709 704.8 712.5 708.4 712.5 712.7ZM740.5 712.7C740.5 717.1 737 720.6 732.6 720.6C728.2 720.6 724.7 717.1 724.7 712.7C724.7 708.3 728.2 704.8 732.6 704.8C737 704.9 740.5 708.4 740.5 712.7ZM768.6 712.7C768.6 717.1 765.1 720.6 760.7 720.6C756.3 720.6 752.8 717.1 752.8 712.7C752.8 708.3 756.3 704.8 760.7 704.8C765.1 704.8 768.6 708.4 768.6 712.7ZM796.7 712.7C796.7 717.1 793.2 720.6 788.8 720.6C784.4 720.6 780.9 717.1 780.9 712.7C780.9 708.3 784.4 704.8 788.8 704.8C793.1 704.9 796.7 708.4 796.7 712.7Z" stroke="#4831D4" stroke-width="2" stroke-miterlimit="50"/>
<path d="M937.7 205.7C937.7 221.4 925 234.1 909.3 234.1C893.6 234.1 880.9 221.4 880.9 205.7C880.9 190 893.6 177.3 909.3 177.3C925 177.3 937.7 190 937.7 205.7ZM929 156.5H889.5V-0.100006H929V156.5ZM396.2 406C396.2 421.7 383.5 434.4 367.8 434.4C352.1 434.4 339.4 421.7 339.4 406C339.4 390.3 352.1 377.6 367.8 377.6C383.5 377.6 396.2 390.3 396.2 406ZM387.5 356.8H348V200.2H387.5V356.8ZM80 531.8C29.3 531.8 -2.1 476.6 23.8 433C49.1 390.4 110.8 390.4 136.1 433C162.1 476.6 130.7 531.8 80 531.8ZM571.8 179.7C521.1 179.7 489.7 124.5 515.6 80.9C540.9 38.3 602.6 38.3 627.9 80.9C653.9 124.5 622.5 179.7 571.8 179.7ZM937.1 579C886.4 579 855 523.8 880.9 480.2C906.2 437.6 967.9 437.6 993.2 480.2C1019.2 523.8 987.8 579 937.1 579ZM162.4 215.5C162.4 231.2 149.7 243.9 134 243.9C118.3 243.9 105.6 231.2 105.6 215.5C105.6 199.8 118.3 187.1 134 187.1C149.7 187.1 162.4 199.8 162.4 215.5ZM153.6 166.3H114.1V9.69999H153.6V166.3Z" fill="#EFEFEF"/>
<path d="M601.1 80.6L601.2 85.8Z" fill="#3361C2"/>
<path d="M740.6 59.6V223.6H601.2V26H707L740.6 59.6Z" fill="#432FC6"/>
<path d="M601.1 127.7L574.8 128.8C574.8 128.8 585.8 74.8 601 68.9L601.1 98.8C606.4 94.4 612 90.4 614 91.5C617.8 93.6 601.1 127.7 601.1 127.7Z" fill="#C9784B"/>
<path d="M601 68.9C601 68.9 587.5 70.3 574.8 128.1" stroke="white" stroke-width="1.5" stroke-miterlimit="50" stroke-linecap="square"/>
<path d="M708.7 606L708.1 640.4C708 648 715.2 653.7 722.6 651.8L800.8 631.6C807.1 630 807.1 621 800.8 619.3L764.6 609.8L708.7 606ZM795.5 276.3L819.1 278C826.7 278.6 832.8 271.7 831.3 264.2L817.5 194.6C816.2 188.3 807.5 187.6 805.3 193.7L788.7 240.7L795.5 276.3ZM463.3 361.7L475.6 404.5L544.1 385.6L562.2 441.1L455.3 485.5C435 493.9 412.1 481.8 407.6 460.4C396.2 405.4 388.3 310.9 462.6 294.8C482.2 290.5 532.7 209.7 532.7 209.7L546 131L604.2 125.1L597.3 221.7C596.6 232 593 241.9 586.9 250.3L538.1 317.7L581.9 391.9L469.5 455.9L463.3 361.7Z" fill="#3D155F"/>
<path d="M571.8 427.2C572.9 426.1 585.7 353.2 593.8 306.3C597.9 282.7 615.2 263.7 638.3 257.5L784.7 218.1L808.3 291.3L677 335.9L669 430.2L571.8 427.2Z" fill="#CCF381"/>
<path d="M472.1 436.9L477.4 449C488.6 474.5 514.7 490.1 542.4 487.8L635.3 480.2L693 628.4C693 628.4 779.7 606.9 777.2 603.6C775.4 601.2 735.6 492.5 711.8 427.3C701.6 399.3 673.2 382.1 643.7 386L511.9 403.4L472.1 436.9Z" fill="#CCF381"/>
<path d="M481.1 474.8L562.2 441.1L545.8 390.6L457 412.1L481.1 474.8Z" fill="#3D155F"/>
<mask id="mask0_4_179" style="mask-type:luminance" maskUnits="userSpaceOnUse" x="400" y="125" width="205" height="364">
<path d="M546.1 131L532.8 209.6C532.8 209.6 482.3 290.4 462.7 294.7C388.4 310.8 396.2 405.3 407.7 460.3C412.2 481.8 435.1 493.9 455.4 485.4L481.2 474.7L562.2 441L551.8 409L582 391.8L538.2 317.6L587 250.2C593.1 241.8 596.7 231.9 597.4 221.6L604.3 125L546.1 131V131Z" fill="white"/>
</mask>
<g mask="url(#mask0_4_179)">
<path d="M460.1 398.6C459.4 407.8 451.3 414.6 442.1 413.9C432.9 413.2 426.1 405.1 426.8 395.9C427.5 386.7 435.6 379.9 444.8 380.6C454 381.3 460.8 389.4 460.1 398.6Z" fill="#432FC6"/>
</g>
<mask id="mask1_4_179" style="mask-type:luminance" maskUnits="userSpaceOnUse" x="400" y="125" width="205" height="364">
<path d="M546.1 131L532.8 209.6C532.8 209.6 482.3 290.4 462.7 294.7C388.4 310.8 396.2 405.3 407.7 460.3C412.2 481.8 435.1 493.9 455.4 485.4L481.2 474.7L562.2 441L551.8 409L582 391.8L538.2 317.6L587 250.2C593.1 241.8 596.7 231.9 597.4 221.6L604.3 125L546.1 131V131Z" fill="white"/>
</mask>
<g mask="url(#mask1_4_179)">
<path d="M527.2 404C526.5 413.2 518.4 420 509.2 419.3C500 418.6 493.2 410.5 493.9 401.3C494.6 392.1 502.7 385.3 511.9 386C521.1 386.8 528 394.8 527.2 404Z" fill="#432FC6"/>
</g>
<mask id="mask2_4_179" style="mask-type:luminance" maskUnits="userSpaceOnUse" x="400" y="125" width="205" height="364">
<path d="M546.1 131L532.8 209.6C532.8 209.6 482.3 290.4 462.7 294.7C388.4 310.8 396.2 405.3 407.7 460.3C412.2 481.8 435.1 493.9 455.4 485.4L481.2 474.7L562.2 441L551.8 409L582 391.8L538.2 317.6L587 250.2C593.1 241.8 596.7 231.9 597.4 221.6L604.3 125L546.1 131V131Z" fill="white"/>
</mask>
<g mask="url(#mask2_4_179)">
<path d="M594.4 409.5C593.7 418.7 585.6 425.5 576.4 424.8C567.2 424.1 560.4 416 561.1 406.8C561.8 397.6 569.9 390.8 579.1 391.5C588.3 392.2 595.1 400.3 594.4 409.5Z" fill="#432FC6"/>
</g>
<mask id="mask3_4_179" style="mask-type:luminance" maskUnits="userSpaceOnUse" x="400" y="125" width="205" height="364">
<path d="M546.1 131L532.8 209.6C532.8 209.6 482.3 290.4 462.7 294.7C388.4 310.8 396.2 405.3 407.7 460.3C412.2 481.8 435.1 493.9 455.4 485.4L481.2 474.7L562.2 441L551.8 409L582 391.8L538.2 317.6L587 250.2C593.1 241.8 596.7 231.9 597.4 221.6L604.3 125L546.1 131V131Z" fill="white"/>
</mask>
<g mask="url(#mask3_4_179)">
<path d="M497.4 354.9C496.7 364.1 488.6 370.9 479.4 370.2C470.2 369.5 463.4 361.4 464.1 352.2C464.8 343 472.9 336.2 482.1 336.9C491.3 337.6 498.2 345.7 497.4 354.9Z" fill="#432FC6"/>
</g>
<mask id="mask4_4_179" style="mask-type:luminance" maskUnits="userSpaceOnUse" x="400" y="125" width="205" height="364">
<path d="M546.1 131L532.8 209.6C532.8 209.6 482.3 290.4 462.7 294.7C388.4 310.8 396.2 405.3 407.7 460.3C412.2 481.8 435.1 493.9 455.4 485.4L481.2 474.7L562.2 441L551.8 409L582 391.8L538.2 317.6L587 250.2C593.1 241.8 596.7 231.9 597.4 221.6L604.3 125L546.1 131V131Z" fill="white"/>
</mask>
<g mask="url(#mask4_4_179)">
<path d="M564.6 360.3C563.9 369.5 555.8 376.3 546.6 375.6C537.4 374.9 530.6 366.8 531.3 357.6C532 348.4 540.1 341.6 549.3 342.3C558.5 343.1 565.3 351.1 564.6 360.3Z" fill="#432FC6"/>
</g>
<mask id="mask5_4_179" style="mask-type:luminance" maskUnits="userSpaceOnUse" x="400" y="125" width="205" height="364">
<path d="M546.1 131L532.8 209.6C532.8 209.6 482.3 290.4 462.7 294.7C388.4 310.8 396.2 405.3 407.7 460.3C412.2 481.8 435.1 493.9 455.4 485.4L481.2 474.7L562.2 441L551.8 409L582 391.8L538.2 317.6L587 250.2C593.1 241.8 596.7 231.9 597.4 221.6L604.3 125L546.1 131V131Z" fill="white"/>
</mask>
<g mask="url(#mask5_4_179)">
<path d="M631.7 365.8C631 375 622.9 381.8 613.7 381.1C604.5 380.4 597.7 372.3 598.4 363.1C599.1 353.9 607.2 347.1 616.4 347.8C625.6 348.6 632.5 356.6 631.7 365.8Z" fill="#432FC6"/>
</g>
<mask id="mask6_4_179" style="mask-type:luminance" maskUnits="userSpaceOnUse" x="400" y="125" width="205" height="364">
<path d="M546.1 131L532.8 209.6C532.8 209.6 482.3 290.4 462.7 294.7C388.4 310.8 396.2 405.3 407.7 460.3C412.2 481.8 435.1 493.9 455.4 485.4L481.2 474.7L562.2 441L551.8 409L582 391.8L538.2 317.6L587 250.2C593.1 241.8 596.7 231.9 597.4 221.6L604.3 125L546.1 131V131Z" fill="white"/>
</mask>
<g mask="url(#mask6_4_179)">
<path d="M430.3 349.4C429.6 358.6 421.5 365.4 412.3 364.7C403.1 364 396.3 355.9 397 346.7C397.7 337.5 405.8 330.7 415 331.4C424.2 332.2 431 340.2 430.3 349.4Z" fill="#432FC6"/>
</g>
<mask id="mask7_4_179" style="mask-type:luminance" maskUnits="userSpaceOnUse" x="400" y="125" width="205" height="364">
<path d="M546.1 131L532.8 209.6C532.8 209.6 482.3 290.4 462.7 294.7C388.4 310.8 396.2 405.3 407.7 460.3C412.2 481.8 435.1 493.9 455.4 485.4L481.2 474.7L562.2 441L551.8 409L582 391.8L538.2 317.6L587 250.2C593.1 241.8 596.7 231.9 597.4 221.6L604.3 125L546.1 131V131Z" fill="white"/>
</mask>
<g mask="url(#mask7_4_179)">
<path d="M489.7 447.7C489 456.9 480.9 463.7 471.7 463C462.5 462.3 455.7 454.2 456.4 445C457.1 435.8 465.2 429 474.4 429.7C483.6 430.5 490.5 438.5 489.7 447.7Z" fill="#432FC6"/>
</g>
<mask id="mask8_4_179" style="mask-type:luminance" maskUnits="userSpaceOnUse" x="400" y="125" width="205" height="364">
<path d="M546.1 131L532.8 209.6C532.8 209.6 482.3 290.4 462.7 294.7C388.4 310.8 396.2 405.3 407.7 460.3C412.2 481.8 435.1 493.9 455.4 485.4L481.2 474.7L562.2 441L551.8 409L582 391.8L538.2 317.6L587 250.2C593.1 241.8 596.7 231.9 597.4 221.6L604.3 125L546.1 131V131Z" fill="white"/>
</mask>
<g mask="url(#mask8_4_179)">
<path d="M556.9 453.2C556.2 462.4 548.1 469.2 538.9 468.5C529.7 467.8 522.9 459.7 523.6 450.5C524.3 441.3 532.4 434.5 541.6 435.2C550.8 435.9 557.6 444 556.9 453.2Z" fill="#432FC6"/>
</g>
<mask id="mask9_4_179" style="mask-type:luminance" maskUnits="userSpaceOnUse" x="400" y="125" width="205" height="364">
<path d="M546.1 131L532.8 209.6C532.8 209.6 482.3 290.4 462.7 294.7C388.4 310.8 396.2 405.3 407.7 460.3C412.2 481.8 435.1 493.9 455.4 485.4L481.2 474.7L562.2 441L551.8 409L582 391.8L538.2 317.6L587 250.2C593.1 241.8 596.7 231.9 597.4 221.6L604.3 125L546.1 131V131Z" fill="white"/>
</mask>
<g mask="url(#mask9_4_179)">
<path d="M624 458.6C623.3 467.8 615.2 474.6 606 473.9C596.8 473.2 590 465.1 590.7 455.9C591.4 446.7 599.5 439.9 608.7 440.6C617.9 441.4 624.8 449.4 624 458.6Z" fill="#432FC6"/>
</g>
<mask id="mask10_4_179" style="mask-type:luminance" maskUnits="userSpaceOnUse" x="400" y="125" width="205" height="364">
<path d="M546.1 131L532.8 209.6C532.8 209.6 482.3 290.4 462.7 294.7C388.4 310.8 396.2 405.3 407.7 460.3C412.2 481.8 435.1 493.9 455.4 485.4L481.2 474.7L562.2 441L551.8 409L582 391.8L538.2 317.6L587 250.2C593.1 241.8 596.7 231.9 597.4 221.6L604.3 125L546.1 131V131Z" fill="white"/>
</mask>
<g mask="url(#mask10_4_179)">
<path d="M422.5 442.2C421.8 451.4 413.7 458.2 404.5 457.5C395.3 456.8 388.5 448.7 389.2 439.5C389.9 430.3 398 423.5 407.2 424.2C416.5 425 423.3 433 422.5 442.2Z" fill="#432FC6"/>
</g>
<mask id="mask11_4_179" style="mask-type:luminance" maskUnits="userSpaceOnUse" x="400" y="125" width="205" height="364">
<path d="M546.1 131L532.8 209.6C532.8 209.6 482.3 290.4 462.7 294.7C388.4 310.8 396.2 405.3 407.7 460.3C412.2 481.8 435.1 493.9 455.4 485.4L481.2 474.7L562.2 441L551.8 409L582 391.8L538.2 317.6L587 250.2C593.1 241.8 596.7 231.9 597.4 221.6L604.3 125L546.1 131V131Z" fill="white"/>
</mask>
<g mask="url(#mask11_4_179)">
<path d="M475.4 212.9C474.7 222.1 466.6 228.9 457.4 228.2C448.2 227.5 441.4 219.4 442.1 210.2C442.8 201 450.9 194.2 460.1 194.9C469.3 195.7 476.1 203.7 475.4 212.9Z" fill="#432FC6"/>
</g>
<mask id="mask12_4_179" style="mask-type:luminance" maskUnits="userSpaceOnUse" x="400" y="125" width="205" height="364">
<path d="M546.1 131L532.8 209.6C532.8 209.6 482.3 290.4 462.7 294.7C388.4 310.8 396.2 405.3 407.7 460.3C412.2 481.8 435.1 493.9 455.4 485.4L481.2 474.7L562.2 441L551.8 409L582 391.8L538.2 317.6L587 250.2C593.1 241.8 596.7 231.9 597.4 221.6L604.3 125L546.1 131V131Z" fill="white"/>
</mask>
<g mask="url(#mask12_4_179)">
<path d="M542.6 218.4C541.9 227.6 533.8 234.4 524.6 233.7C515.4 233 508.6 224.9 509.3 215.7C510 206.5 518.1 199.7 527.3 200.4C536.5 201.1 543.3 209.2 542.6 218.4Z" fill="#432FC6"/>
</g>
<mask id="mask13_4_179" style="mask-type:luminance" maskUnits="userSpaceOnUse" x="400" y="125" width="205" height="364">
<path d="M546.1 131L532.8 209.6C532.8 209.6 482.3 290.4 462.7 294.7C388.4 310.8 396.2 405.3 407.7 460.3C412.2 481.8 435.1 493.9 455.4 485.4L481.2 474.7L562.2 441L551.8 409L582 391.8L538.2 317.6L587 250.2C593.1 241.8 596.7 231.9 597.4 221.6L604.3 125L546.1 131V131Z" fill="white"/>
</mask>
<g mask="url(#mask13_4_179)">
<path d="M609.7 223.8C609 233 600.9 239.8 591.7 239.1C582.5 238.4 575.7 230.3 576.4 221.1C577.1 211.9 585.2 205.1 594.4 205.8C603.6 206.6 610.5 214.6 609.7 223.8Z" fill="#432FC6"/>
</g>
<mask id="mask14_4_179" style="mask-type:luminance" maskUnits="userSpaceOnUse" x="400" y="125" width="205" height="364">
<path d="M546.1 131L532.8 209.6C532.8 209.6 482.3 290.4 462.7 294.7C388.4 310.8 396.2 405.3 407.7 460.3C412.2 481.8 435.1 493.9 455.4 485.4L481.2 474.7L562.2 441L551.8 409L582 391.8L538.2 317.6L587 250.2C593.1 241.8 596.7 231.9 597.4 221.6L604.3 125L546.1 131V131Z" fill="white"/>
</mask>
<g mask="url(#mask14_4_179)">
<path d="M408.2 207.4C407.5 216.6 399.4 223.4 390.2 222.7C381 222 374.2 213.9 374.9 204.7C375.6 195.5 383.7 188.7 392.9 189.4C402.1 190.1 409 198.3 408.2 207.4Z" fill="#432FC6"/>
</g>
<mask id="mask15_4_179" style="mask-type:luminance" maskUnits="userSpaceOnUse" x="400" y="125" width="205" height="364">
<path d="M546.1 131L532.8 209.6C532.8 209.6 482.3 290.4 462.7 294.7C388.4 310.8 396.2 405.3 407.7 460.3C412.2 481.8 435.1 493.9 455.4 485.4L481.2 474.7L562.2 441L551.8 409L582 391.8L538.2 317.6L587 250.2C593.1 241.8 596.7 231.9 597.4 221.6L604.3 125L546.1 131V131Z" fill="white"/>
</mask>
<g mask="url(#mask15_4_179)">
<path d="M505 262C504.3 271.2 496.2 278 487 277.3C477.8 276.6 471 268.5 471.7 259.3C472.4 250.1 480.5 243.3 489.7 244C498.9 244.7 505.8 252.9 505 262Z" fill="#432FC6"/>
</g>
<mask id="mask16_4_179" style="mask-type:luminance" maskUnits="userSpaceOnUse" x="400" y="125" width="205" height="364">
<path d="M546.1 131L532.8 209.6C532.8 209.6 482.3 290.4 462.7 294.7C388.4 310.8 396.2 405.3 407.7 460.3C412.2 481.8 435.1 493.9 455.4 485.4L481.2 474.7L562.2 441L551.8 409L582 391.8L538.2 317.6L587 250.2C593.1 241.8 596.7 231.9 597.4 221.6L604.3 125L546.1 131V131Z" fill="white"/>
</mask>
<g mask="url(#mask16_4_179)">
<path d="M572.2 267.5C571.5 276.7 563.4 283.5 554.2 282.8C545 282.1 538.2 274 538.9 264.8C539.6 255.6 547.7 248.8 556.9 249.5C566.1 250.3 572.9 258.3 572.2 267.5Z" fill="#432FC6"/>
</g>
<mask id="mask17_4_179" style="mask-type:luminance" maskUnits="userSpaceOnUse" x="400" y="125" width="205" height="364">
<path d="M546.1 131L532.8 209.6C532.8 209.6 482.3 290.4 462.7 294.7C388.4 310.8 396.2 405.3 407.7 460.3C412.2 481.8 435.1 493.9 455.4 485.4L481.2 474.7L562.2 441L551.8 409L582 391.8L538.2 317.6L587 250.2C593.1 241.8 596.7 231.9 597.4 221.6L604.3 125L546.1 131V131Z" fill="white"/>
</mask>
<g mask="url(#mask17_4_179)">
<path d="M437.9 256.6C437.2 265.8 429.1 272.6 419.9 271.9C410.7 271.2 403.9 263.1 404.6 253.9C405.3 244.7 413.4 237.9 422.6 238.6C431.8 239.3 438.6 247.4 437.9 256.6Z" fill="#432FC6"/>
</g>
<mask id="mask18_4_179" style="mask-type:luminance" maskUnits="userSpaceOnUse" x="400" y="125" width="205" height="364">
<path d="M546.1 131L532.8 209.6C532.8 209.6 482.3 290.4 462.7 294.7C388.4 310.8 396.2 405.3 407.7 460.3C412.2 481.8 435.1 493.9 455.4 485.4L481.2 474.7L562.2 441L551.8 409L582 391.8L538.2 317.6L587 250.2C593.1 241.8 596.7 231.9 597.4 221.6L604.3 125L546.1 131V131Z" fill="white"/>
</mask>
<g mask="url(#mask18_4_179)">
<path d="M512.8 169.2C512.1 178.4 504 185.2 494.8 184.5C485.6 183.8 478.8 175.7 479.5 166.5C480.2 157.3 488.3 150.5 497.5 151.2C506.7 152 513.6 160 512.8 169.2Z" fill="#432FC6"/>
</g>
<mask id="mask19_4_179" style="mask-type:luminance" maskUnits="userSpaceOnUse" x="400" y="125" width="205" height="364">
<path d="M546.1 131L532.8 209.6C532.8 209.6 482.3 290.4 462.7 294.7C388.4 310.8 396.2 405.3 407.7 460.3C412.2 481.8 435.1 493.9 455.4 485.4L481.2 474.7L562.2 441L551.8 409L582 391.8L538.2 317.6L587 250.2C593.1 241.8 596.7 231.9 597.4 221.6L604.3 125L546.1 131V131Z" fill="white"/>
</mask>
<g mask="url(#mask19_4_179)">
<path d="M580 174.7C579.3 183.9 571.2 190.7 562 190C552.8 189.3 546 181.2 546.7 172C547.4 162.8 555.5 156 564.7 156.7C573.9 157.4 580.7 165.5 580 174.7Z" fill="#432FC6"/>
</g>
<mask id="mask20_4_179" style="mask-type:luminance" maskUnits="userSpaceOnUse" x="400" y="125" width="205" height="364">
<path d="M546.1 131L532.8 209.6C532.8 209.6 482.3 290.4 462.7 294.7C388.4 310.8 396.2 405.3 407.7 460.3C412.2 481.8 435.1 493.9 455.4 485.4L481.2 474.7L562.2 441L551.8 409L582 391.8L538.2 317.6L587 250.2C593.1 241.8 596.7 231.9 597.4 221.6L604.3 125L546.1 131V131Z" fill="white"/>
</mask>
<g mask="url(#mask20_4_179)">
<path d="M445.7 163.8C445 173 436.9 179.8 427.7 179.1C418.5 178.4 411.7 170.3 412.4 161.1C413.1 151.9 421.2 145.1 430.4 145.8C439.6 146.5 446.4 154.6 445.7 163.8Z" fill="#432FC6"/>
</g>
<mask id="mask21_4_179" style="mask-type:luminance" maskUnits="userSpaceOnUse" x="400" y="125" width="205" height="364">
<path d="M546.1 131L532.8 209.6C532.8 209.6 482.3 290.4 462.7 294.7C388.4 310.8 396.2 405.3 407.7 460.3C412.2 481.8 435.1 493.9 455.4 485.4L481.2 474.7L562.2 441L551.8 409L582 391.8L538.2 317.6L587 250.2C593.1 241.8 596.7 231.9 597.4 221.6L604.3 125L546.1 131V131Z" fill="white"/>
</mask>
<g mask="url(#mask21_4_179)">
<path d="M534.9 311.2C534.2 320.4 526.1 327.2 516.9 326.5C507.7 325.8 500.9 317.7 501.6 308.5C502.3 299.3 510.4 292.5 519.6 293.2C528.8 294 535.7 302 534.9 311.2Z" fill="#432FC6"/>
</g>
<mask id="mask22_4_179" style="mask-type:luminance" maskUnits="userSpaceOnUse" x="400" y="125" width="205" height="364">
<path d="M546.1 131L532.8 209.6C532.8 209.6 482.3 290.4 462.7 294.7C388.4 310.8 396.2 405.3 407.7 460.3C412.2 481.8 435.1 493.9 455.4 485.4L481.2 474.7L562.2 441L551.8 409L582 391.8L538.2 317.6L587 250.2C593.1 241.8 596.7 231.9 597.4 221.6L604.3 125L546.1 131V131Z" fill="white"/>
</mask>
<g mask="url(#mask22_4_179)">
<path d="M602.1 316.7C601.4 325.9 593.3 332.7 584.1 332C574.9 331.3 568.1 323.2 568.8 314C569.5 304.8 577.6 298 586.8 298.7C596 299.4 602.8 307.5 602.1 316.7Z" fill="#432FC6"/>
</g>
<mask id="mask23_4_179" style="mask-type:luminance" maskUnits="userSpaceOnUse" x="400" y="125" width="205" height="364">
<path d="M546.1 131L532.8 209.6C532.8 209.6 482.3 290.4 462.7 294.7C388.4 310.8 396.2 405.3 407.7 460.3C412.2 481.8 435.1 493.9 455.4 485.4L481.2 474.7L562.2 441L551.8 409L582 391.8L538.2 317.6L587 250.2C593.1 241.8 596.7 231.9 597.4 221.6L604.3 125L546.1 131V131Z" fill="white"/>
</mask>
<g mask="url(#mask23_4_179)">
<path d="M400.6 300.3C399.9 309.5 391.8 316.3 382.6 315.6C373.4 314.9 366.6 306.8 367.3 297.6C368 288.4 376.1 281.6 385.3 282.3C394.5 283 401.4 291.1 400.6 300.3Z" fill="#432FC6"/>
</g>
<path d="M463 319.3C462.3 319.3 461.6 319.3 460.9 319.2C451.3 318.1 444.5 309.4 445.6 299.8L453.2 235.2C454.3 225.6 463 218.8 472.6 219.9C482.2 221 489 229.7 487.9 239.3L480.3 304C479.2 312.8 471.7 319.3 463 319.3Z" fill="#3D155F"/>
<path d="M646.1 481L633.4 479.7L637.6 463.7M458.7 409.6L470.1 406.7" stroke="white" stroke-width="1.5" stroke-miterlimit="50" stroke-linecap="square"/>
<path d="M554.1 417C554.1 416.9 577.9 395.2 577.9 395.2L606.1 389.3C606.1 389.3 582.9 367 547.3 395.6L554.1 417Z" fill="#C9784B"/>
<path d="M677.9 322.8L679.7 337.5L660.8 337.2M459.8 361.7L470.1 406.9L544.2 385.5L554.6 417.5L578.7 393.9L644.5 385.2C644.5 385.2 663.5 382.2 672.9 388.2" stroke="white" stroke-width="1.5" stroke-miterlimit="50" stroke-linecap="square"/>
<path d="M400.3 311.2V463.2H93.4V344.8L127 311.2H400.3ZM998.4 319.3V438.5H759.4L725.8 405V319.4L998.4 319.3ZM331.5 629.5H637.9V488.2H297.9V595.8L331.5 629.5ZM900.8 203H841V102.4H900.8V203Z" fill="#432FC6"/>
<path d="M333.3 102.2C317 102.2 306.9 84.5 315.3 70.5C323.4 56.8 343.2 56.8 351.4 70.5C359.7 84.5 349.6 102.2 333.3 102.2Z" fill="#CCF381"/>
<path d="M505.3 151.1C505.3 158.5 499.3 164.6 491.8 164.6C484.3 164.6 478.3 158.6 478.3 151.1C478.3 143.7 484.3 137.6 491.8 137.6C499.3 137.7 505.3 143.7 505.3 151.1ZM501.2 127.9H482.5V53.8H501.2V127.9Z" fill="#432FC6"/>
<path d="M251.5 432.7C251.5 435.3 249.5 437.4 246.9 437.4C244.3 437.4 242.2 435.4 242.2 432.8V432.7C242.2 430.1 244.4 428.1 246.9 428.1C249.4 428.2 251.4 430.2 251.5 432.7ZM888.8 144.1C888.8 146.4 886.9 148.3 884.6 148.3C882.3 148.3 880.4 146.4 880.4 144.1C880.4 141.8 882.3 139.9 884.6 139.9C886.9 139.9 888.8 141.8 888.8 144.1ZM887.5 136.8H881.6V113.5H887.5V136.8Z" fill="#CCF381"/>
<path d="M965.4 344.4H980.2M972.8 337V351.8M312.6 510.9H328.7M320.6 502.8V518.9M107.5 444H122.7M115.1 436.4V451.6M372.9 330.6H390.6M381.7 321.8V339.5M715.4 206.2H727.4M721.4 200.2V212.2M848 189.6H858.5M853.3 184.4V194.9" stroke="#FFEB5C" stroke-width="2" stroke-miterlimit="50"/>
<path d="M930 639.3H844.2V568.8H930V639.3Z" fill="#432FC6"/>
<path d="M930 639.3H844.2V568.8H930V639.3Z" fill="#432FC6"/>
<path d="M879.1 604.1H895.1M887.1 596.1V612.1" stroke="#FFEB5C" stroke-width="2" stroke-miterlimit="50"/>
<path d="M335.3 214.3C335.3 217.2 332.9 219.6 330 219.6C327.1 219.6 324.7 217.2 324.7 214.3C324.7 211.4 327.1 209 330 209C332.9 209 335.3 211.4 335.3 214.3ZM333.6 205.2H326.3V176.2H333.6V205.2Z" fill="#432FC6"/>
<path d="M405.1 133L420 147.9M420 133L405.1 147.9" stroke="#FFEB5C" stroke-width="2" stroke-miterlimit="50"/>
<path d="M481.1 297L469.6 295.6L480.3 304L481.1 297Z" fill="#24272D"/>
<path d="M575.8 381.5C575.8 381.5 594.3 376.6 606.1 389.2" stroke="white" stroke-width="1.5" stroke-miterlimit="50" stroke-linecap="square"/>
<path d="M473.6 297.3H477.5C496.6 297.1 510.8 278.4 507 258.5L502.6 235.3C499.7 219.8 486.7 208.8 471.9 209.1C455 209.5 441.7 224.4 442.1 242.3L442.6 265.6C443.1 283.3 456.9 297.5 473.6 297.3Z" fill="#C9784B"/>
<path d="M485.8 247.2L488.9 259.8C489.7 263 487.8 266.3 484.5 267.1L483.8 267.3" stroke="#252B2D" stroke-width="1.5" stroke-miterlimit="50" stroke-linecap="round" stroke-linejoin="round"/>
<path d="M455.2 266.4L460 231.3L461.1 223C463.4 224.9 466 226.4 468.8 227.5C478.9 231.4 507.2 225.8 508.7 205.3C509.9 188.6 493.7 200.1 484.7 200.2C470.6 200.3 459.8 193.3 442 206C420.7 221.2 435.3 250.2 435.3 250.2C435.3 250.2 444.9 245 455.2 266.4Z" fill="#24272D"/>
<path d="M469.2 252.7C470.1 254.3 472.1 254.9 473.8 254C475.4 253.1 476 251.1 475.1 249.4C474.2 247.8 472.1 247.3 470.5 248.2C468.9 249.2 468.3 251.1 469.2 252.7ZM489.8 250.5C490.7 252.1 492.7 252.7 494.4 251.8C496 250.9 496.6 248.9 495.7 247.2C494.8 245.6 492.7 245.1 491.1 246C489.5 247 488.9 249 489.8 250.5Z" fill="#24272D"/>
<path d="M469.1 273.9C469.1 273.9 470.1 280.8 477.9 281.2" stroke="#252B2D" stroke-width="1.5" stroke-miterlimit="50" stroke-linecap="round" stroke-linejoin="round"/>
<path d="M457.2 278C462.3 273.9 463.2 266.3 459.1 261.2L451.9 252.2C447.8 247.1 440.2 246.2 435.1 250.3C430 254.4 429.1 262 433.2 267.1L440.4 276.1C444.5 281.3 452.1 282.1 457.2 278Z" fill="#C9784B"/>
<path d="M439.2 260.2L446.4 266.1" stroke="#252B2D" stroke-width="1.5" stroke-miterlimit="50" stroke-linecap="round" stroke-linejoin="round"/>
<path d="M127 311.2V344.8H93.4L127 311.2ZM331.5 629.5L297.9 595.9H331.5V629.5ZM759.5 405V438.6L725.8 405H759.5Z" fill="#3D155F"/>
<path d="M416.493 576.621C411.363 576.621 407.36 575.477 404.483 573.189C401.641 570.902 400.22 567.661 400.22 563.467C400.22 559.342 401.502 556.084 404.067 553.692C406.667 551.3 410.393 550.105 415.245 550.105C418.33 550.105 420.965 550.676 423.148 551.82C425.367 552.964 427.03 554.524 428.14 556.5C429.283 558.475 429.855 560.694 429.855 563.155V566.534H411.346C412.351 568.337 414.621 569.238 418.157 569.238C419.786 569.238 421.484 569.116 423.252 568.874C425.055 568.597 426.58 568.215 427.828 567.73V574.749C426.441 575.304 424.725 575.754 422.68 576.101C420.67 576.447 418.608 576.621 416.493 576.621ZM418.833 560.139C418.417 558.406 417.152 557.539 415.037 557.539C412.992 557.539 411.762 558.406 411.346 560.139H418.833Z" fill="#CCF381"/>
<path d="M432.435 537.418H444.133V575.841H432.435V537.418Z" fill="#CCF381"/>
<path d="M458.011 576.621C454.51 576.621 451.876 575.633 450.108 573.657C448.375 571.681 447.508 569.064 447.508 565.806V550.884H459.207V564.35C459.207 566.499 460.125 567.574 461.962 567.574C463.626 567.574 464.839 566.794 465.602 565.234V550.884H477.3V575.841H466.018V573.761C464.978 574.662 463.765 575.356 462.378 575.841C460.992 576.361 459.536 576.621 458.011 576.621Z" fill="#CCF381"/>
<path d="M493.194 576.621C490.49 576.621 488.133 576.083 486.123 575.009C484.147 573.9 482.605 572.34 481.496 570.33C480.421 568.319 479.884 565.997 479.884 563.363C479.884 560.763 480.421 558.458 481.496 556.448C482.605 554.437 484.165 552.877 486.175 551.768C488.185 550.659 490.525 550.105 493.194 550.105C494.65 550.105 496.036 550.33 497.353 550.78C498.705 551.196 499.797 551.751 500.629 552.444V537.418H512.327V575.841H501.045V573.761C500.109 574.628 498.93 575.321 497.509 575.841C496.123 576.361 494.684 576.621 493.194 576.621ZM496.417 567.574C497.319 567.574 498.151 567.366 498.913 566.95C499.676 566.534 500.248 565.962 500.629 565.234V561.491C500.248 560.763 499.676 560.191 498.913 559.775C498.151 559.359 497.319 559.151 496.417 559.151C495.031 559.151 493.939 559.515 493.142 560.243C492.379 560.971 491.998 562.028 491.998 563.415C491.998 564.801 492.379 565.841 493.142 566.534C493.939 567.227 495.031 567.574 496.417 567.574Z" fill="#CCF381"/>
<path d="M524.867 576.621C521.609 576.621 519.009 575.91 517.068 574.489C515.127 573.033 514.156 570.919 514.156 568.146C514.156 565.338 515.092 563.207 516.964 561.751C518.87 560.295 521.678 559.567 525.387 559.567C526.496 559.567 527.709 559.706 529.026 559.983C530.343 560.226 531.435 560.52 532.302 560.867V560.451C532.302 559.55 531.73 558.839 530.586 558.319C529.442 557.799 527.934 557.539 526.063 557.539C523.047 557.539 520.291 558.163 517.796 559.411V551.976C518.94 551.422 520.447 550.971 522.319 550.624C524.191 550.278 526.253 550.105 528.506 550.105C533.498 550.105 537.328 551.023 539.997 552.86C542.666 554.697 544 557.297 544 560.659V575.841H532.978V574.021C532.18 574.749 531.037 575.356 529.546 575.841C528.09 576.361 526.531 576.621 524.867 576.621ZM528.61 570.174C529.338 570.174 530.031 570.035 530.69 569.758C531.383 569.48 531.92 569.134 532.302 568.718V567.054C531.158 566.396 529.927 566.066 528.61 566.066C527.882 566.066 527.31 566.257 526.894 566.638C526.479 567.019 526.271 567.522 526.271 568.146C526.271 568.735 526.461 569.22 526.842 569.602C527.258 569.983 527.848 570.174 528.61 570.174Z" fill="#CCF381"/>
<path d="M707 25.9L740.6 59.5H707V25.9Z" fill="#3D155F"/>
<path d="M288.5 278.5H214.4V172.3L231.3 157.7H288.5V278.5Z" fill="#432FC6"/>
<path d="M231.3 172.3H214.4L231.3 157.7V172.3Z" fill="#3D155F"/>
<path d="M273.4 171.5H281.4M277.4 167.5V175.5" stroke="#FFEB5C" stroke-width="1.5" stroke-miterlimit="10"/>
<path d="M816.168 397.934C813.732 397.934 811.837 397.242 810.48 395.858C809.124 394.447 808.446 392.509 808.446 390.046V381.95H805.789V376.802H809.069L812.93 368.955H817.123V376.802H821.939V381.95H817.123V389.008C817.123 389.7 817.345 390.24 817.787 390.627C818.23 391.015 818.853 391.208 819.656 391.208C820.403 391.208 821.081 391.042 821.69 390.71L822.022 396.523C821.33 396.938 820.431 397.284 819.324 397.561C818.244 397.81 817.192 397.934 816.168 397.934ZM823.873 376.802H832.342L834.709 390.295L837.573 376.802H844.714L847.621 390.627L849.987 376.802H856.796L852.478 397.602H842.555L840.23 386.6L838.03 397.602H828.44L823.873 376.802ZM867.01 397.934C864.685 397.934 862.872 397.187 861.571 395.692C860.27 394.198 859.619 392.163 859.619 389.589V376.802H868.421V389.216C868.421 389.852 868.587 390.35 868.919 390.71C869.279 391.042 869.736 391.208 870.289 391.208C870.843 391.208 871.41 391.042 871.992 390.71L872.448 396.481C871.839 396.952 871.037 397.312 870.04 397.561C869.072 397.81 868.061 397.934 867.01 397.934ZM864.02 373.688C862.719 373.688 861.612 373.287 860.699 372.484C859.813 371.654 859.37 370.643 859.37 369.453C859.37 368.263 859.841 367.267 860.782 366.464C861.723 365.661 862.802 365.26 864.02 365.26C865.293 365.26 866.387 365.675 867.3 366.506C868.241 367.336 868.712 368.319 868.712 369.453C868.712 370.671 868.241 371.681 867.3 372.484C866.359 373.287 865.266 373.688 864.02 373.688ZM882.173 397.934C879.82 397.934 877.994 397.201 876.693 395.734C875.42 394.239 874.783 392.205 874.783 389.631V370.242L883.543 368.955V389.008C883.543 389.783 883.723 390.35 884.083 390.71C884.47 391.042 885.135 391.208 886.076 391.208C886.768 391.208 887.446 391.042 888.11 390.71L888.401 396.523C886.546 397.464 884.47 397.934 882.173 397.934ZM897.864 397.934C895.539 397.934 893.726 397.187 892.425 395.692C891.124 394.198 890.474 392.163 890.474 389.589V376.802H899.275V389.216C899.275 389.852 899.441 390.35 899.774 390.71C900.133 391.042 900.59 391.208 901.144 391.208C901.697 391.208 902.265 391.042 902.846 390.71L903.303 396.481C902.694 396.952 901.891 397.312 900.895 397.561C899.926 397.81 898.916 397.934 897.864 397.934ZM894.875 373.688C893.574 373.688 892.466 373.287 891.553 372.484C890.667 371.654 890.225 370.643 890.225 369.453C890.225 368.263 890.695 367.267 891.636 366.464C892.577 365.661 893.657 365.26 894.875 365.26C896.148 365.26 897.241 365.675 898.154 366.506C899.095 367.336 899.566 368.319 899.566 369.453C899.566 370.671 899.095 371.681 898.154 372.484C897.213 373.287 896.12 373.688 894.875 373.688ZM916.639 397.934C914.314 397.934 912.239 397.478 910.412 396.564C908.613 395.651 907.201 394.391 906.177 392.786C905.181 391.153 904.682 389.285 904.682 387.181C904.682 385.078 905.194 383.223 906.218 381.618C907.243 379.985 908.654 378.726 910.453 377.84C912.28 376.954 914.356 376.511 916.681 376.511C919.034 376.511 921.109 376.968 922.908 377.881C924.735 378.767 926.147 380.013 927.143 381.618C928.14 383.223 928.638 385.078 928.638 387.181C928.638 389.312 928.126 391.195 927.102 392.828C926.105 394.433 924.694 395.692 922.867 396.606C921.068 397.491 918.992 397.934 916.639 397.934ZM916.722 391.707C917.857 391.707 918.784 391.291 919.504 390.461C920.251 389.603 920.625 388.51 920.625 387.181C920.625 385.853 920.251 384.773 919.504 383.943C918.784 383.085 917.857 382.656 916.722 382.656C915.588 382.656 914.647 383.085 913.899 383.943C913.18 384.773 912.82 385.853 912.82 387.181C912.82 388.51 913.18 389.603 913.899 390.461C914.647 391.291 915.588 391.707 916.722 391.707Z" fill="#CCF381"/>
<path d="M191.97 405.138C189.461 405.138 187.235 404.636 185.29 403.633C183.378 402.598 181.873 401.155 180.775 399.305C179.709 397.455 179.176 395.354 179.176 393.002C179.176 390.745 179.74 388.691 180.869 386.841C181.998 384.991 183.535 383.533 185.479 382.467C187.423 381.4 189.586 380.867 191.97 380.867C195.011 380.867 197.41 381.494 199.166 382.749L198.272 389.004C196.485 388.471 195.011 388.205 193.851 388.205C192.346 388.205 191.154 388.644 190.276 389.522C189.398 390.369 188.959 391.529 188.959 393.002C188.959 394.476 189.398 395.652 190.276 396.53C191.154 397.408 192.314 397.847 193.757 397.847C195.011 397.847 196.485 397.581 198.178 397.048L199.072 403.633C198.006 404.166 196.924 404.542 195.826 404.761C194.729 405.012 193.443 405.138 191.97 405.138ZM215.049 415.532C213.324 415.532 211.678 415.36 210.11 415.015L210.863 408.054C212.086 408.242 213.214 408.336 214.249 408.336C216.099 408.336 217.51 407.772 218.482 406.643C219.455 405.545 219.956 403.46 219.988 400.387C218.357 403.523 215.739 405.091 212.133 405.091C209.091 405.091 206.708 404.024 204.983 401.892C203.29 399.729 202.443 396.75 202.443 392.955V381.197H212.321V394.414C212.321 395.48 212.619 396.373 213.214 397.095C213.81 397.784 214.626 398.129 215.66 398.129C216.726 398.129 217.589 397.675 218.247 396.765C218.937 395.856 219.282 394.664 219.282 393.191V381.197H229.207V398.788C229.207 404.244 227.984 408.399 225.538 411.252C223.092 414.106 219.596 415.532 215.049 415.532ZM245.573 405.138C243.065 405.138 240.839 404.636 238.894 403.633C236.982 402.598 235.476 401.155 234.379 399.305C233.313 397.455 232.78 395.354 232.78 393.002C232.78 390.745 233.344 388.691 234.473 386.841C235.602 384.991 237.138 383.533 239.083 382.467C241.027 381.4 243.19 380.867 245.573 380.867C248.615 380.867 251.014 381.494 252.77 382.749L251.876 389.004C250.089 388.471 248.615 388.205 247.455 388.205C245.95 388.205 244.758 388.644 243.88 389.522C243.002 390.369 242.563 391.529 242.563 393.002C242.563 394.476 243.002 395.652 243.88 396.53C244.758 397.408 245.918 397.847 247.361 397.847C248.615 397.847 250.089 397.581 251.782 397.048L252.676 403.633C251.61 404.166 250.528 404.542 249.43 404.761C248.333 405.012 247.047 405.138 245.573 405.138ZM264.42 405.138C261.754 405.138 259.685 404.307 258.211 402.645C256.768 400.951 256.047 398.647 256.047 395.731V373.765L265.972 372.307V395.025C265.972 395.903 266.176 396.546 266.583 396.953C267.022 397.33 267.775 397.518 268.841 397.518C269.625 397.518 270.393 397.33 271.146 396.953L271.475 403.538C269.374 404.605 267.022 405.138 264.42 405.138ZM282.196 405.138C279.562 405.138 277.508 404.291 276.034 402.598C274.56 400.904 273.823 398.6 273.823 395.684V381.197H283.795V395.26C283.795 395.981 283.983 396.546 284.359 396.953C284.767 397.33 285.284 397.518 285.911 397.518C286.539 397.518 287.181 397.33 287.84 396.953L288.357 403.491C287.667 404.024 286.758 404.432 285.629 404.714C284.532 404.997 283.387 405.138 282.196 405.138ZM278.809 377.669C277.335 377.669 276.081 377.214 275.046 376.305C274.043 375.364 273.541 374.22 273.541 372.871C273.541 371.523 274.074 370.394 275.14 369.485C276.206 368.575 277.429 368.121 278.809 368.121C280.252 368.121 281.49 368.591 282.525 369.532C283.591 370.473 284.124 371.586 284.124 372.871C284.124 374.251 283.591 375.396 282.525 376.305C281.459 377.214 280.22 377.669 278.809 377.669ZM302.714 405.138C300.206 405.138 297.979 404.636 296.035 403.633C294.122 402.598 292.617 401.155 291.52 399.305C290.454 397.455 289.921 395.354 289.921 393.002C289.921 390.745 290.485 388.691 291.614 386.841C292.743 384.991 294.279 383.533 296.223 382.467C298.167 381.4 300.331 380.867 302.714 380.867C305.756 380.867 308.155 381.494 309.911 382.749L309.017 389.004C307.23 388.471 305.756 388.205 304.596 388.205C303.09 388.205 301.899 388.644 301.021 389.522C300.143 390.369 299.704 391.529 299.704 393.002C299.704 394.476 300.143 395.652 301.021 396.53C301.899 397.408 303.059 397.847 304.501 397.847C305.756 397.847 307.23 397.581 308.923 397.048L309.817 403.633C308.75 404.166 307.669 404.542 306.571 404.761C305.474 405.012 304.188 405.138 302.714 405.138Z" fill="#CCF381"/>
<path d="M618.107 136.218C616.651 136.218 615.359 135.927 614.231 135.345C613.121 134.744 612.247 133.907 611.611 132.834C610.992 131.76 610.682 130.541 610.682 129.176C610.682 127.865 611.01 126.673 611.665 125.6C612.32 124.526 613.212 123.68 614.34 123.061C615.469 122.442 616.724 122.133 618.107 122.133C619.872 122.133 621.265 122.497 622.284 123.225L621.765 126.855C620.728 126.546 619.872 126.391 619.199 126.391C618.326 126.391 617.634 126.646 617.125 127.156C616.615 127.647 616.36 128.32 616.36 129.176C616.36 130.031 616.615 130.713 617.125 131.223C617.634 131.733 618.307 131.987 619.145 131.987C619.872 131.987 620.728 131.833 621.711 131.523L622.229 135.345C621.61 135.654 620.983 135.873 620.346 136C619.709 136.146 618.963 136.218 618.107 136.218ZM628.963 136.218C627.052 136.218 625.378 135.936 623.94 135.372L624.568 132.124C625.878 132.597 627.152 132.834 628.39 132.834C629.299 132.834 629.754 132.579 629.754 132.069C629.754 131.814 629.618 131.605 629.345 131.441C629.09 131.278 628.599 131.132 627.871 131.005C626.36 130.713 625.269 130.222 624.595 129.531C623.94 128.839 623.613 127.856 623.613 126.582C623.685 125.145 624.259 124.044 625.332 123.279C626.406 122.515 627.871 122.133 629.727 122.133C630.673 122.133 631.483 122.197 632.157 122.324C632.848 122.433 633.476 122.624 634.04 122.897L633.467 126.146C632.939 125.946 632.357 125.791 631.72 125.682C631.101 125.572 630.582 125.518 630.164 125.518C629.545 125.518 629.118 125.582 628.881 125.709C628.644 125.836 628.526 126.009 628.526 126.228C628.526 126.628 628.981 126.91 629.891 127.074C631.547 127.365 632.784 127.875 633.603 128.602C634.422 129.33 634.832 130.322 634.832 131.578C634.832 133.016 634.322 134.153 633.303 134.99C632.302 135.809 630.855 136.218 628.963 136.218ZM641.572 136.218C639.661 136.218 637.987 135.936 636.549 135.372L637.177 132.124C638.487 132.597 639.761 132.834 640.999 132.834C641.908 132.834 642.363 132.579 642.363 132.069C642.363 131.814 642.227 131.605 641.954 131.441C641.699 131.278 641.208 131.132 640.48 131.005C638.969 130.713 637.878 130.222 637.204 129.531C636.549 128.839 636.222 127.856 636.222 126.582C636.294 125.145 636.868 124.044 637.941 123.279C639.015 122.515 640.48 122.133 642.336 122.133C643.282 122.133 644.092 122.197 644.766 122.324C645.457 122.433 646.085 122.624 646.649 122.897L646.076 126.146C645.548 125.946 644.966 125.791 644.329 125.682C643.71 125.572 643.191 125.518 642.773 125.518C642.154 125.518 641.726 125.582 641.49 125.709C641.253 125.836 641.135 126.009 641.135 126.228C641.135 126.628 641.59 126.91 642.5 127.074C644.156 127.365 645.393 127.875 646.212 128.602C647.031 129.33 647.441 130.322 647.441 131.578C647.441 133.016 646.931 134.153 645.912 134.99C644.911 135.809 643.464 136.218 641.572 136.218ZM660.528 136.218C658.927 136.218 657.68 135.763 656.788 134.854C655.897 133.925 655.451 132.652 655.451 131.032V125.709H653.704V122.324H655.86L658.399 117.165H661.156V122.324H664.322V125.709H661.156V130.349C661.156 130.804 661.301 131.159 661.593 131.414C661.884 131.669 662.293 131.796 662.821 131.796C663.312 131.796 663.758 131.687 664.159 131.469L664.377 135.29C663.922 135.563 663.331 135.791 662.603 135.973C661.893 136.136 661.201 136.218 660.528 136.218ZM666.412 122.515H672.172V125.299C672.591 124.226 673.155 123.434 673.865 122.925C674.593 122.397 675.439 122.133 676.403 122.133L677.195 126.582C675.466 126.582 674.192 126.774 673.373 127.156C672.573 127.52 672.172 128.102 672.172 128.903V136H666.412V122.515ZM683.399 136.218C681.871 136.218 680.679 135.727 679.823 134.744C678.968 133.762 678.54 132.424 678.54 130.732V122.324H684.327V130.486C684.327 130.905 684.437 131.232 684.655 131.469C684.891 131.687 685.192 131.796 685.556 131.796C685.92 131.796 686.293 131.687 686.675 131.469L686.975 135.263C686.575 135.572 686.047 135.809 685.392 135.973C684.755 136.136 684.091 136.218 683.399 136.218ZM681.434 120.277C680.579 120.277 679.851 120.013 679.25 119.485C678.668 118.939 678.377 118.275 678.377 117.492C678.377 116.71 678.686 116.055 679.305 115.527C679.923 114.999 680.633 114.735 681.434 114.735C682.271 114.735 682.99 115.008 683.59 115.554C684.209 116.1 684.518 116.746 684.518 117.492C684.518 118.293 684.209 118.957 683.59 119.485C682.972 120.013 682.253 120.277 681.434 120.277ZM695.307 136.218C693.851 136.218 692.559 135.927 691.431 135.345C690.321 134.744 689.447 133.907 688.81 132.834C688.192 131.76 687.882 130.541 687.882 129.176C687.882 127.865 688.21 126.673 688.865 125.6C689.52 124.526 690.412 123.68 691.54 123.061C692.668 122.442 693.924 122.133 695.307 122.133C697.072 122.133 698.465 122.497 699.484 123.225L698.965 126.855C697.928 126.546 697.072 126.391 696.399 126.391C695.526 126.391 694.834 126.646 694.325 127.156C693.815 127.647 693.56 128.32 693.56 129.176C693.56 130.031 693.815 130.713 694.325 131.223C694.834 131.733 695.507 131.987 696.345 131.987C697.072 131.987 697.928 131.833 698.91 131.523L699.429 135.345C698.81 135.654 698.183 135.873 697.546 136C696.909 136.146 696.163 136.218 695.307 136.218ZM714.898 136.218C713.679 136.218 712.696 136.064 711.95 135.754C711.222 135.427 710.621 134.89 710.148 134.144C709.675 133.398 709.256 132.333 708.892 130.95L707.282 132.233V136H701.495L701.522 118.011L707.309 117.165L707.282 126.501L714.297 120.768L717.437 125.054L713.042 128.111C713.26 129.494 713.569 130.459 713.97 131.005C714.388 131.551 714.998 131.824 715.799 131.824C716.126 131.824 716.518 131.769 716.972 131.66L716.427 136.136C715.881 136.191 715.371 136.218 714.898 136.218ZM723.677 136.218C721.766 136.218 720.092 135.936 718.654 135.372L719.282 132.124C720.592 132.597 721.866 132.834 723.103 132.834C724.013 132.834 724.468 132.579 724.468 132.069C724.468 131.814 724.332 131.605 724.059 131.441C723.804 131.278 723.313 131.132 722.585 131.005C721.074 130.713 719.982 130.222 719.309 129.531C718.654 128.839 718.326 127.856 718.326 126.582C718.399 125.145 718.972 124.044 720.046 123.279C721.12 122.515 722.585 122.133 724.441 122.133C725.387 122.133 726.197 122.197 726.87 122.324C727.562 122.433 728.19 122.624 728.754 122.897L728.181 126.146C727.653 125.946 727.071 125.791 726.434 125.682C725.815 125.572 725.296 125.518 724.878 125.518C724.259 125.518 723.831 125.582 723.595 125.709C723.358 125.836 723.24 126.009 723.24 126.228C723.24 126.628 723.695 126.91 724.605 127.074C726.261 127.365 727.498 127.875 728.317 128.602C729.136 129.33 729.546 130.322 729.546 131.578C729.546 133.016 729.036 134.153 728.017 134.99C727.016 135.809 725.569 136.218 723.677 136.218Z" fill="#CCF381"/>
<path d="M264.247 260.691C264.247 262.091 263.876 263.368 263.135 264.521C262.394 265.654 261.416 266.549 260.201 267.208C258.965 267.867 257.657 268.197 256.278 268.197C254.816 268.197 253.477 267.857 252.262 267.178C251.027 266.477 250.059 265.551 249.359 264.398C248.658 263.224 248.308 261.978 248.308 260.66C248.308 259.466 248.556 258.457 249.05 257.633C249.544 256.789 250.337 256.109 251.428 255.594L243.644 255.594L242.687 249.077L264 249.077L264 255.594L261.127 255.594C263.207 256.562 264.247 258.261 264.247 260.691ZM259.367 258.652C259.367 257.787 259.058 257.067 258.44 256.49C257.822 255.893 257.101 255.594 256.278 255.594L256.154 255.594C255.351 255.594 254.661 255.903 254.085 256.521C253.487 257.139 253.189 257.849 253.189 258.652C253.189 259.517 253.498 260.248 254.116 260.845C254.713 261.422 255.433 261.71 256.278 261.71C257.143 261.71 257.874 261.412 258.471 260.814C259.068 260.197 259.367 259.476 259.367 258.652ZM264.247 237.918C264.247 239.627 263.907 241.151 263.228 242.489C262.528 243.807 261.58 244.837 260.386 245.578C259.171 246.319 257.802 246.69 256.278 246.69C254.713 246.69 253.323 246.309 252.108 245.547C250.893 244.785 249.956 243.756 249.297 242.458C248.638 241.161 248.308 239.719 248.308 238.134C248.308 236.61 248.648 235.313 249.328 234.242C249.987 233.15 250.893 232.337 252.046 231.801C253.179 231.266 254.455 230.998 255.876 230.998C256.247 230.998 256.515 231.019 256.679 231.06L257.884 240.327C258.605 240.08 259.13 239.678 259.459 239.122C259.768 238.566 259.923 237.835 259.923 236.929C259.923 235.529 259.562 234.015 258.842 232.388L262.981 231.616C263.825 233.531 264.247 235.632 264.247 237.918ZM253.992 235.786C252.695 236.116 252.046 236.898 252.046 238.134C252.046 238.875 252.324 239.462 252.88 239.894C253.436 240.327 254.157 240.553 255.042 240.574L253.992 235.786ZM248.525 230.267L248.525 223.101L257.791 220.723L248.525 218.406L248.525 212.753L264 217.665L264 225.171L248.525 230.267ZM264.185 209.347C264.185 210.439 263.887 211.293 263.29 211.911C262.692 212.529 261.941 212.838 261.035 212.838C260.108 212.838 259.356 212.518 258.78 211.88C258.203 211.242 257.915 210.397 257.915 209.347C257.915 208.318 258.224 207.484 258.842 206.845C259.439 206.207 260.17 205.888 261.035 205.888C262.003 205.888 262.775 206.186 263.351 206.783C263.907 207.381 264.185 208.235 264.185 209.347ZM264.247 197.103C264.247 198.915 263.732 200.326 262.703 201.335C261.652 202.344 260.211 202.848 258.378 202.848L252.355 202.848L252.355 204.825L248.525 204.825L248.525 202.385L242.687 199.512L242.687 196.393L248.525 196.393L248.525 192.809L252.355 192.809L252.355 196.393L257.606 196.393C258.121 196.393 258.522 196.228 258.811 195.898C259.099 195.569 259.243 195.106 259.243 194.508C259.243 193.952 259.12 193.448 258.872 192.995L263.197 192.748C263.506 193.263 263.763 193.932 263.969 194.755C264.154 195.559 264.247 196.341 264.247 197.103ZM264.247 182.622C264.247 184.352 263.907 185.896 263.228 187.256C262.548 188.594 261.611 189.644 260.417 190.406C259.202 191.148 257.812 191.518 256.247 191.518C254.682 191.518 253.302 191.137 252.108 190.375C250.893 189.613 249.956 188.563 249.297 187.225C248.638 185.866 248.308 184.321 248.308 182.591C248.308 180.841 248.648 179.296 249.328 177.958C249.987 176.599 250.913 175.549 252.108 174.807C253.302 174.066 254.682 173.695 256.247 173.695C257.833 173.695 259.233 174.076 260.448 174.838C261.642 175.579 262.579 176.63 263.259 177.989C263.918 179.327 264.247 180.872 264.247 182.622ZM259.614 182.56C259.614 181.716 259.305 181.026 258.687 180.491C258.049 179.935 257.235 179.657 256.247 179.657C255.258 179.657 254.455 179.935 253.838 180.491C253.199 181.026 252.88 181.716 252.88 182.56C252.88 183.405 253.199 184.105 253.838 184.661C254.455 185.196 255.258 185.464 256.247 185.464C257.235 185.464 258.049 185.196 258.687 184.661C259.305 184.105 259.614 183.405 259.614 182.56Z" fill="#CCF381"/>
</g>
<defs>
<clipPath id="clip0_4_179">
<rect width="1003" height="722" fill="white"/>
</clipPath>
</defs>
</svg>
